HIERARCHY
ROOT hip
{
  OFFSET 0.0 0.0 0.0
  CHANNELS 6 Xposition Yposition Zposition Zrotation Yrotation Xrotation
  JOINT torso
  {
    OFFSET 0.0 0.0 0.0
    CHANNELS 3 Zrotation Xrotation Yrotation
    JOINT neck
    {
      OFFSET -31.42098999999993 328.8025209999999 74.3554680000002
      CHANNELS 3 Zrotation Xrotation Yrotation
      JOINT head
      {
        OFFSET 3.3519900000001144 303.81732099999994 206.53942900000015
        CHANNELS 3 Zrotation Xrotation Yrotation
        End Site
        {
          OFFSET 0.0 0.0 0.0
        }
      }
    }
    JOINT left_collar
    {
      OFFSET -31.42098999999993 328.8025209999999 74.3554680000002
      CHANNELS 3 Zrotation Xrotation Yrotation
      JOINT left_upper_arm
      {
        OFFSET -124.490479 -8.162841999999841 8.226441000000023
        CHANNELS 3 Zrotation Xrotation Yrotation
        JOINT left_forearm
        {
          OFFSET -253.595764 -1.5758060000000569 105.0729980000001
          CHANNELS 3 Zrotation Xrotation Yrotation
          JOINT left_hand
          {
            OFFSET -269.48803699999996 0.1478270000000066 -55.346191999999974
            CHANNELS 3 Zrotation Xrotation Yrotation
            End Site
            {
              OFFSET 0.0 0.0 0.0
            }
          }
        }
      }
    }
    JOINT right_collar
    {
      OFFSET -31.42098999999993 328.8025209999999 74.3554680000002
      CHANNELS 3 Zrotation Xrotation Yrotation
      JOINT right_upper_arm
      {
        OFFSET 162.02484099999998 0.46441600000002836 2.2303470000001653
        CHANNELS 3 Zrotation Xrotation Yrotation
        JOINT right_forearm
        {
          OFFSET 240.01246700000004 -25.835875999999985 121.34179699999959
          CHANNELS 3 Zrotation Xrotation Yrotation
          JOINT right_hand
          {
            OFFSET 252.48539699999992 18.910399999999868 -67.53466800000001
            CHANNELS 3 Zrotation Xrotation Yrotation
            End Site
            {
              OFFSET 0.0 0.0 0.0
            }
          }
        }
      }
    }
  }
}
MOTION
Frames: 14
Frame Time: 0.01
-240.54848184602437 261.72586194660784 1384.4086860080345 2.835372664928973 -5.980616648454023 1.1569244507800234 -0.7012823436904401 3.4915892018935426 0.47396840155770703 -3.3318014198604233 -3.109864936170909 2.3475311859238506 0.0 0.0 0.0 0.20336724262229172 0.12921813941715046 -1.7169548296429147 53.646848135893975 8.779420126600895 27.48966420922826 34.574289576891104 -4.42470138739481 -9.07270515735567 0.0 0.0 0.0 -0.5486823193550386 0.01884831391960036 5.865390796370571 -44.91569111593089 3.594841254501421 -36.8770992955926 -36.65997492711236 -6.4433338758460135 13.000944278780134 0.0 0.0 0.0
-240.51078428946985 261.7107129089325 1384.2680983112964 2.8262482488942378 -5.987846669228287 1.1610707031504248 -0.703433513079137 3.487378930372217 0.47400792803036007 -3.3427443994322656 -3.1017018520489397 2.3549248894899057 0.0 0.0 0.0 0.2112874273813853 0.1295599640522338 -1.712492934329473 53.6375533236267 8.778624620200572 27.487741435992803 34.56708807348446 -4.42401735560853 -9.071772243215795 0.0 0.0 0.0 -0.5487126652128862 0.018848242444903334 5.864331529848927 -44.89971015522913 3.5914473968745897 -36.87799527649142 -36.629689137735966 -6.438456557625872 13.001472143795588 0.0 0.0 0.0
-240.47186789303416 261.6951561616055 1384.1262973060907 2.8170952721945235 -5.995741138692056 1.1649913322025434 -0.7056078582556627 3.483402523354183 0.47407344999681156 -3.353766488260795 -3.092994093355901 2.3623586983074216 0.0 0.0 0.0 0.21892917923001434 0.12986061704492127 -1.7077655296246368 53.62845713970813 8.777868759948344 27.485815859436688 34.55978352773207 -4.423398788849689 -9.070586639708154 0.0 0.0 0.0 -0.5486705187614881 0.01884328081342863 5.8631811214828975 -44.88402470655091 3.588124384551788 -36.87886079905344 -36.59844379222825 -6.433370092398624 13.00223115158628 0.0 0.0 0.0
-240.43130615807692 261.6784234122017 1383.9825814780124 2.807723573476924 -6.004670155069179 1.16873512255501 -0.7076314364187427 3.479644596574496 0.4741293574933821 -3.3649757061584133 -3.0834139033319383 2.3698990832871316 0.0 0.0 0.0 0.22598383579250994 0.13006795627119613 -1.7023725316156233 53.61987211303727 8.777344204920169 27.48363583361351 34.552336489185244 -4.422841480148918 -9.069144517685885 0.0 0.0 0.0 -0.5484526929660891 0.018826439737053183 5.861792682289332 -44.86892176582748 3.5850380653691554 -36.87948156340764 -36.56552713979535 -6.42792902311884 13.003354148959465 0.0 0.0 0.0
-240.38866322030034 261.6596816889149 1383.836147622342 2.7979453974434474 -6.015010953250401 1.1723728577314927 -0.7093441317559009 3.476084214072715 0.4741422349883702 -3.3764820561408233 -3.0726382560194727 2.3776139245927146 0.0 0.0 0.0 0.23217169577632485 0.13013387426617254 -1.6959391375647166 53.61209334490446 8.777242252328948 27.480943793761515 34.54467885365241 -4.422329858987023 -9.067465781168005 0.0 0.0 0.0 -0.547963275483081 0.01879123003757587 5.860029492942629 -44.85467707707615 3.5823498206875515 -36.87964749328335 -36.530167540597375 -6.421976019913997 13.004984789592346 0.0 0.0 0.0
-240.34350726218327 261.63805168368435 1383.6861145065511 2.7875830261520202 -6.027136097252882 1.1759965500184089 -0.7106068047009794 3.472695145805426 0.47408229576712224 -3.388392970167777 -3.060360622654594 2.385569645062583 0.0 0.0 0.0 0.23725383569956723 0.13001624904389875 -1.688129808893637 53.60538777108716 8.777748302380704 27.477482950723157 34.53671307134707 -4.421836166658406 -9.06559636618736 0.0 0.0 0.0 -0.5471173669725476 0.01873192244705706 5.857771407849694 -44.84154746350676 3.580211670147503 -36.87915941085409 -36.4915527248773 -6.415345895812804 13.007274020260157 0.0 0.0 0.0
-240.2954223304244 261.61262762466015 1383.5315461298148 2.7764752386077642 -6.041401869302868 1.179717695543448 -0.7113069942617888 3.4694462868877225 0.47392454634398473 -3.400808983099096 -3.0463022318093307 2.3938284913196513 0.0 0.0 0.0 0.24104187007022687 0.12968055843999599 -1.6786596423543505 53.599984869747516 8.779036766092286 27.473003705373355 34.52831271075385 -4.421320172137619 -9.06360941124002 0.0 0.0 0.0 -0.5458442093984496 0.018643767294099247 5.854920778395075 -44.829763946372125 3.578761961285 -36.877834912526495 -36.44885034495412 -6.407870083238763 13.010375645257188 0.0 0.0 0.0
-240.24401781303354 261.5824981627106 1383.3714733058152 2.764482284411651 -6.0581372634264055 1.1836644784420607 -0.7113629059613285 3.4663022553142273 0.4736496293712722 -3.413819822072674 -3.0302224140787954 2.402446083286518 0.0 0.0 0.0 0.24340521745450217 0.1291010741746185 -1.6673025955679754 53.59606919444463 8.781266562713334 27.467269628688136 34.51932441071923 -4.420729475923584 -9.061605165623021 0.0 0.0 0.0 -0.5440895754308195 0.01852316397726057 5.851407740091905 -44.8195258399945 3.5781217774502383 -36.87551324491388 -36.40122922709743 -6.399381453170639 13.014441048270065 0.0 0.0 0.0
-240.18893492908373 261.5467677361279 1383.2049124084358 2.751489182353046 -6.077633947679569 1.1879778791610578 -0.7107255557923187 3.4632241752361472 0.4732443199362004 -3.427501075164675 -3.0119276685610057 2.411469337986789 0.0 0.0 0.0 0.24427559004622956 0.1282615789849414 -1.6538962352965803 53.593774989778595 8.784577303252004 27.460062901047937 34.5095711751411 -4.420000419487929 -9.059709564388331 0.0 0.0 0.0 -0.5418173320983861 0.018367772938110833 5.847194750895052 -44.81099595509581 3.5783921430132053 -36.87205906175616 -36.34788074148075 -6.389719335875511 13.019613228654935 0.0 0.0 0.0
-240.12984970917947 261.5045778767214 1383.0308802917398 2.7374072822482414 -6.1001375058814675 1.1928066891854714 -0.7093790753502702 3.4601706427739174 0.47270167593011264 -3.4419115651656793 -2.9912791498254845 2.420934848610545 0.0 0.0 0.0 0.24364857955996477 0.1271555794940752 -1.6383428794627157 53.593183016937715 8.789086215029604 27.451189135178772 34.49885690014061 -4.419059591942483 -9.058071453907813 0.0 0.0 0.0 -0.5390101255407665 0.01817656534748778 5.842280297039038 -44.80429700668993 3.579652056914224 -36.86736502080988 -36.288039737140416 -6.378734585378969 13.026020373200106 0.0 0.0 0.0
-240.06647209605902 261.455127934888 1382.8484046351168 2.722174154391479 -6.125840203964978 1.1983014941083467 -0.7073393096551808 3.4570988551249258 0.47202086672872334 -3.4570915042365415 -2.9681983436096147 2.4308677664944818 0.0 0.0 0.0 0.2415823657519762 0.12578601759842473 -1.6206071987236905 53.59431958304219 8.794885831099908 27.440481518998578 34.48697197175828 -4.417825903173989 -9.05685849987612 0.0 0.0 0.0 -0.5356691658285212 0.017949808305587397 5.836701695878485 -44.79950929766655 3.5819573475940265 -36.86135324482123 -36.22100453520001 -6.366294520475879 13.033769233251348 0.0 0.0 0.0
-239.99854097237787 261.3976947256656 1382.6565292740731 2.705751993726255 -6.154875447145545 1.2046077514348528 -0.7046509547709338 3.4539658580301116 0.47120672494792176 -3.473061446847435 -2.9426707683295135 2.441281194329651 0.0 0.0 0.0 0.23819372831303418 0.12416451317030443 -1.600710527262307 53.59715763657319 8.802042445224128 27.427804213851136 34.47369972744854 -4.416213170916334 -9.056251857045291 0.0 0.0 0.0 -0.5318131306352539 0.0176889865635388 5.8305369238243285 -44.79666972429298 3.5853403163475757 -36.853975714554736 -36.14615552528199 -6.352287570640755 13.042938615437722 0.0 0.0 0.0
-239.92581512206917 261.3316506314532 1382.454314440101 2.6881248380852782 -6.187314008792719 1.2118581488703934 -0.7013835818093631 3.4507298380739537 0.4702690830617686 -3.4898219973847158 -2.9147476042582423 2.45217605746262 0.0 0.0 0.0 0.2336516973881331 0.12231019907129091 -1.5787222955410727 53.60161966837777 8.810595316682994 27.413054934486453 34.458823531147836 -4.414133146061465 -9.056439730910355 0.0 0.0 0.0 -0.5274762584319884 0.017396665809818437 5.823905392733796 -44.7957721180701 3.5898101188598273 -36.845213687808865 -36.0629719545861 -6.336627452841939 13.05357332837872 0.0 0.0 0.0
-239.8480603406059 261.2564797430305 1382.24083220917 2.66929498562894 -6.223162033813168 1.2201644770894768 -0.697626965414411 3.4473513709837382 0.4692219693269625 -3.507354172047694 -2.884545219166215 2.46354138167198 0.0 0.0 0.0 0.22816932220853597 0.12024823388364685 -1.5547491360385493 53.60758205505707 8.820556595382442 27.396166631101703 34.44213416543971 -4.4114988756863704 -9.057610015384702 0.0 0.0 0.0 -0.5227057630218711 0.017076307169105496 5.81696760905574 -44.79676889553722 3.595353815979549 -36.83507626355958 -35.97104653778608 -6.319256705444521 13.065678959139886 0.0 0.0 0.0
